HIERARCHY
ROOT Hips
{
  OFFSET 57.8838 95.319 338.509
  CHANNELS 6 Xposition Yposition Zposition Zrotation Xrotation Yrotation
  JOINT LeftUpLeg
  {
    OFFSET 8.64259 1.95398 -2.38835
    CHANNELS 3 Zrotation Xrotation Yrotation
    JOINT LeftLeg
    {
      OFFSET 43.7702 0 0
      CHANNELS 3 Zrotation Xrotation Yrotation
      JOINT LeftFoot
      {
        OFFSET 40.6238 0 0
        CHANNELS 3 Zrotation Xrotation Yrotation
        JOINT LeftToeBase
        {
          OFFSET 12.7242 0 0
          CHANNELS 3 Zrotation Xrotation Yrotation
          End Site
          {
            OFFSET 0 0 0
          }
        }
      }
    }
  }
  JOINT RightUpLeg
  {
    OFFSET -8.2249 1.95398 -2.59336
    CHANNELS 3 Zrotation Xrotation Yrotation
    JOINT RightLeg
    {
      OFFSET 43.5653 0 0
      CHANNELS 3 Zrotation Xrotation Yrotation
      JOINT RightFoot
      {
        OFFSET 40.6238 0 0
        CHANNELS 3 Zrotation Xrotation Yrotation
        JOINT RightToeBase
        {
          OFFSET 12.7242 0 0
          CHANNELS 3 Zrotation Xrotation Yrotation
          End Site
          {
            OFFSET 0 0 0
          }
        }
      }
    }
  }
  JOINT Spine
  {
    OFFSET 0.165834 0.87714 6.61349
    CHANNELS 3 Zrotation Xrotation Yrotation
    JOINT Spine1
    {
      OFFSET 7.38963 1.71661e-005 0
      CHANNELS 3 Zrotation Xrotation Yrotation
      JOINT Spine2
      {
        OFFSET 11.9445 1.14441e-005 0
        CHANNELS 3 Zrotation Xrotation Yrotation
        JOINT Spine3
        {
          OFFSET 14.7254 4.19617e-005 0
          CHANNELS 3 Zrotation Xrotation Yrotation
          JOINT Spine4
          {
            OFFSET 10.9679 0 0
            CHANNELS 3 Zrotation Xrotation Yrotation
            JOINT RightShoulder
            {
              OFFSET 2.46616 -1.6653 3.69651
              CHANNELS 3 Zrotation Xrotation Yrotation
              JOINT RightArm
              {
                OFFSET 13.0012 0 0
                CHANNELS 3 Zrotation Xrotation Yrotation
                JOINT RightForeArm
                {
                  OFFSET 28.7848 1.62311e-005 0
                  CHANNELS 3 Zrotation Xrotation Yrotation
                  JOINT RightHand
                  {
                    OFFSET 26.5688 1.62095e-005 0
                    CHANNELS 3 Zrotation Xrotation Yrotation
                    End Site
                    {
                      OFFSET 0 0 0
                    }
                  }
                }
              }
            }
            JOINT LeftShoulder
            {
              OFFSET 2.38034 -1.29275 -3.7523
              CHANNELS 3 Zrotation Xrotation Yrotation
              JOINT LeftArm
              {
                OFFSET 16.3182 6.07031e-005 0
                CHANNELS 3 Zrotation Xrotation Yrotation
                JOINT LeftForeArm
                {
                  OFFSET 27.0901 0 0
                  CHANNELS 3 Zrotation Xrotation Yrotation
                  JOINT LeftHand
                  {
                    OFFSET 24.5451 1.51738e-005 0
                    CHANNELS 3 Zrotation Xrotation Yrotation
                    End Site
                    {
                      OFFSET 0 0 0
                    }
                  }
                }
              }
            }
            JOINT Neck
            {
              OFFSET 5.0226 -0.0266342 0
              CHANNELS 3 Zrotation Xrotation Yrotation
              JOINT Head
              {
                OFFSET 6.69364 2.86102e-005 0
                CHANNELS 3 Zrotation Xrotation Yrotation
                End Site
                {
                  OFFSET 0 0 0
                }
              }
            }
          }
        }
      }
    }
  }
}
MOTION
Frames:	18
Frame Time:	0.0416667
-140.414 86.4457 142.334 98.8569 42.6558 84.7695 174.511 32.7256 88.9761 -14.0393 13.1831 0.0121009 55.8349 -2.06101 8.27823 44.9965 7.95107 12.7976 173.34 -16.2495 97.2093 -32.9936 -4.08044 -1.63204 73.4742 -14.2848 8.2116 42.401 -19.4512 -4.75862 1.12157 8.11731 -90.7753 10.6676 1.87636 -1.72011 -1.00326 1.79881 -1.80101 -23.5459 2.3066 -1.07657 -3.53321 2.30661 -1.07657 97.0135 -42.7089 -90.8067 18.7585 -55.7757 -21.3104 -20.0293 34.095 -105.301 15.5636 1.11824 2.8355 -80.1033 -44.7559 93.4005 -2.0989 -13.9639 4.27135 0.531327 31.0653 -25.4012 7.97904 -1.09589 -15.482 20.2266 0.203616 -1.04903 -16.2154 -0.926509 11.6252 
-127.332 84.3828 127.573 100.53 37.9281 78.7954 -179.682 34.3089 82.0657 -36.8978 16.2102 -2.25757 54.7128 -3.72494 13.729 40.0288 5.0196 6.56847 170.167 -9.02603 82.4483 -61.1465 -14.6148 -3.52522 58.597 7.16875 11.4596 35.0188 -9.15857 -7.93324 1.16974 8.33569 -89.7361 10.1968 2.45129 0.330651 -1.47178 2.46347 0.222379 -24.0227 2.23843 1.0524 -4.01002 2.23845 1.05241 96.9402 -44.3225 -90.7432 24.7006 -61.0392 -17.5903 -30.9024 24.9668 -76.8494 8.95054 0.381979 -0.25772 -81.167 -51.4242 92.1521 -9.02053 -11.042 -3.74196 -1.92612 30.1879 -23.8142 7.09205 -1.14435 -16.9935 25.8604 -0.289082 -4.39314 -18.6986 -0.592987 13.1277 
-115.376 83.3062 115.425 105.068 42.329 73.0013 -175.809 28.6413 75.1616 -54.0506 22.453 -2.55912 59.1263 5.98977 21.0379 44.7038 6.64221 1.91911 170.808 7.3932 89.442 -98.7091 -10.9544 -3.50275 58.1579 4.98146 3.2026 29.5429 -0.916772 -4.76993 0.223691 8.80089 -89.2361 9.25991 0.788571 1.4528 -2.4116 0.851751 1.41669 -24.9401 0.315585 1.62258 -4.92744 0.315594 1.62259 96.814 -47.4063 -90.5912 28.8279 -49.4034 -11.4185 -37.9678 1.62413 -58.4855 3.11607 0.148957 0.75307 -83.9323 -54.5617 88.3392 -17.0658 -3.75552 -22.4312 -3.4182 41.7418 -19.0898 5.30914 -1.04828 -18.7949 31.2663 -0.364012 -7.10135 -20.1762 0.355433 13.9599 
-104.304 89.1202 104.263 106.257 46.1043 77.144 -177.934 13.4189 80.6916 -48.2216 24.8138 0.0244237 61.9479 9.35547 19.8934 47.0863 7.85834 3.50453 167.219 27.9087 93.325 -112.981 -8.59923 -3.38926 60.3197 -0.593837 -1.60592 32.599 -5.30789 -4.12924 -0.58291 8.65429 -89.7512 9.56793 -1.04991 0.573718 -2.10272 -1.02364 0.619368 -24.6411 -1.17381 0.231611 -4.6284 -1.17379 0.231615 97.6037 -47.3799 -89.329 31.4249 -35.7609 0.319922 -36.3985 -4.66478 -59.0702 -1.49516 -0.0768563 1.35564 -84.6525 -50.414 86.8156 -23.3616 10.2313 -32.179 3.14704 38.1402 -34.0666 -0.23418 -0.342927 -17.8326 28.8114 1.03727 -8.87503 -19.8992 2.23473 14.285 
-92.8676 99.4557 92.8225 109.263 48.8285 80.759 -178.961 0.675654 87.9216 -38.7977 20.1878 3.98935 51.9776 -10.016 2.56215 34.3303 2.10121 5.20368 165.036 34.3351 100.104 -99.9133 -7.19499 -2.39129 63.5104 -1.7548 2.82999 36.9892 -11.8106 -5.44519 -1.29954 8.38978 -90.4735 10.0811 -2.80528 -0.709435 -1.58694 -2.83377 -0.585189 -24.1403 -2.46231 -1.52016 -4.12765 -2.46229 -1.52017 98.1212 -43.8723 -88.8062 27.7635 -32.0449 9.72249 -24.7849 2.10717 -60.775 -3.59235 -0.177488 0.716147 -82.9314 -49.3233 89.3024 -19.8019 24.4959 -34.4262 2.6882 20.7605 -53.0102 1.28047 -0.565718 -19.2484 20.8022 3.16561 -11.4498 -20.6953 3.78319 18.1586 
-82.534 105.901 82.307 109.898 50.2299 81.3688 -178.639 -0.919678 88.3331 -30.9648 15.6313 3.26591 48.4812 -13.9775 1.95661 13.9097 -7.73964 7.60467 169.532 33.6824 100.665 -78.2882 -4.34433 -0.820813 67.8263 -5.39139 7.58211 36.0516 -10.6453 -6.76033 -1.4025 8.29348 -90.5081 10.2793 -3.02647 -0.748843 -1.38827 -3.05651 -0.61481 -23.9449 -2.66145 -1.62434 -3.93223 -2.66144 -1.62434 98.7273 -40.2699 -88.101 23.1473 -26.8378 15.8203 -16.0512 3.69505 -58.9056 -0.824281 -0.0491327 -0.412066 -82.4931 -47.332 89.794 -12.249 34.7091 -41.3865 8.77387 11.3844 -71.8433 1.95991 -0.578872 -17.2442 20.8225 2.08478 -14.758 -22.0928 3.32977 19.6615 
-72.2443 106.125 72.3461 110.069 54.8883 81.7761 -178.171 0.792954 89.8304 -19.2447 13.7998 1.92053 49.9368 -13.9228 -0.738614 18.7288 -5.141 6.4826 172.935 28.8545 99.5654 -51.8575 -5.16645 1.51571 68.3763 -3.2135 14.4925 36.8462 -11.9772 -7.55315 -1.66986 8.33434 -90.5113 10.1963 -3.56058 -0.713813 -1.46986 -3.58854 -0.556226 -24.0361 -3.1813 -1.75185 -4.02345 -3.18131 -1.75187 98.7281 -38.7343 -88.2266 14.1392 -20.435 18.1928 -8.57999 1.66603 -49.7645 -0.145882 -0.0120042 -2.00467 -83.9211 -44.2997 87.1878 -4.3131 39.8528 -52.4873 9.91165 3.12332 -84.0759 2.76103 -0.715147 -18.2377 23.5803 -0.399973 -18.4694 -23.772 2.19514 20.1931 
-61.7099 98.8822 62.43 115.304 57.3271 76.4477 -177.785 0.483965 87.6555 -27.0034 20.7449 1.5804 54.5429 -5.02397 9.74301 34.9423 2.49491 -0.967752 176.497 25.4193 97.453 -32.7185 1.28464 0.437075 68.5219 -0.434425 19.4313 34.1391 -7.84022 -7.31741 -1.69897 8.65507 -90.3048 9.56123 -3.52472 -0.334432 -2.10496 -3.53602 -0.178784 -24.6738 -3.26109 -1.37939 -4.66121 -3.26108 -1.37939 99.1961 -37.6675 -87.4684 6.54728 -12.2166 19.2318 -5.37305 -4.57459 -37.8129 -4.23892 -0.135811 -1.66372 -84.4352 -40.6949 85.8525 2.1314 38.6413 -66.0294 8.28343 0.854003 -89.7321 1.97073 -0.558844 -16.6728 21.5477 -1.84208 -19.4775 -22.4365 1.21283 19.1828 
-50.9011 90.3032 52.8562 121.215 56.1523 66.8186 -175.65 -8.94624 85.2444 -39.7971 25.7731 2.10942 60.6474 16.5873 28.2966 56.5042 13.0411 8.07816 177.991 25.6876 92.3987 -22.231 0.35222 -1.17241 66.8768 2.32782 17.4741 32.4169 -5.24488 -7.68985 -1.58812 9.14163 -89.6589 8.6007 -3.01771 0.852408 -3.06712 -2.97729 0.984504 -25.6304 -3.13425 -0.0948267 -5.61772 -3.13426 -0.0948332 100.512 -37.4315 -85.0758 8.43284 -7.13111 18.8791 -4.59809 -12.117 -28.6374 -10.7531 -0.554473 0.974017 -84.4724 -39.4315 85.6029 3.15433 36.0701 -69.6735 13.2458 2.13618 -88.7554 -1.30831 -0.235635 -19.8474 20.0181 -1.52416 -18.6654 -19.3049 1.85166 17.0235 
-38.6723 90.1759 40.5768 113.916 59.7059 70.8268 -175.192 -13.8662 87.2459 -40.4779 24.7743 3.71829 60.706 10.1306 15.7595 62.3148 16.6686 10.2163 176.881 28.2499 89.6427 -16.2976 8.80387 -0.737248 67.3361 5.09612 18.0586 30.2147 -1.87662 -6.71686 -1.68125 8.40033 -89.8499 10.1076 -3.28153 0.602435 -1.55925 -3.25182 0.746421 -24.129 -3.31079 -0.412753 -4.1164 -3.31079 -0.412756 101.812 -40.8686 -82.6367 17.0346 -4.56717 18.6051 -2.56745 -13.9169 -21.7329 -7.74864 -0.417639 0.527584 -84.4854 -43.5038 86.1546 -8.39526 38.2049 -49.7957 18.2847 14.7754 -73.1409 -2.54223 -0.070023 -20.3678 16.9401 -0.3848 -15.1124 -19.3122 1.47499 16.8708 
-25.8612 89.7942 27.3834 108.396 66.3321 75.1922 -175.599 -10.7342 92.1857 -49.6275 19.8019 6.27146 55.1988 -0.198277 8.62842 52.2599 12.0819 14.0008 173.393 31.1518 87.4476 -25.7059 -3.38674 3.56415 57.9685 11.731 8.17096 29.4535 -0.786413 -5.09494 -2.03402 7.72576 -90.4704 11.4133 -4.26656 -0.497716 -0.250731 -4.28432 -0.309117 -22.8339 -3.9195 -1.75888 -2.82127 -3.91951 -1.7589 103.489 -45.3908 -79.8291 22.0891 -1.01747 17.6283 -1.9968 -13.583 -19.4588 -3.22683 -0.0910472 -2.19239 -83.9316 -47.0877 87.5213 -26.1064 23.4216 -27.4703 23.2123 42.1874 -56.3683 -0.917267 -0.3009 -18.9056 17.134 0.285059 -11.7938 -21.1727 0.798843 17.1317 
-14.9008 88.3812 16.9162 112.184 62.7178 76.4831 -175.459 -5.12833 95.2553 -68.7262 13.9963 7.66135 57.2202 2.48543 9.93142 51.0645 11.6564 14.9651 168.77 29.336 95.8916 -43.6945 -9.85236 5.78084 61.7314 2.36466 0.667805 24.6204 5.10761 3.26535 -1.49344 8.55727 -91.3287 9.71852 -3.57807 -2.35417 -1.94936 -3.67816 -2.19434 -24.4925 -2.70548 -3.32055 -4.47983 -2.70547 -3.32054 101.431 -49.8937 -83.1339 23.6596 -0.625918 7.46935 -1.78281 -13.2457 -18.3433 -1.63075 -0.0621982 -1.16367 -83.767 -50.8618 88.195 -30.8004 -1.25179 -21.6371 39.2431 67.6752 -53.7364 8.17232 -0.993217 -14.1288 21.0645 0.990396 -10.3966 -20.7855 1.25212 18.6331 
-5.7027 91.1841 7.75211 110.064 60.3416 76.7552 179.784 7.05314 89.2979 -72.822 12.2457 6.4626 57.0114 3.983 12.8716 52.7304 12.0321 12.1202 169.775 21.7328 96.3884 -45.4866 -8.28281 4.76299 66.7776 -2.08358 1.84528 27.7649 1.12014 3.82928 -0.938936 8.44954 -91.2619 9.94614 -2.44452 -2.30406 -1.72442 -2.54352 -2.19426 -24.2525 -1.63939 -2.93188 -4.2398 -1.63939 -2.93188 100.209 -50.1993 -85.0258 25.2991 -2.97955 -2.12203 0.0724558 -6.26443 -21.6728 -6.39959 -0.216204 -1.21306 -83.9423 -51.925 88.0483 -32.5537 -17.9056 -22.2367 -4.43556 75.7593 1.85032 9.9006 -0.776352 -11.0691 12.0556 0.372836 -8.27123 -17.443 -0.0522192 17.9752 
3.01304 95.642 -0.399101 108.497 54.4727 77.5534 178.472 13.1861 85.9549 -55.3251 11.5801 4.57179 57.3985 4.63116 11.406 53.473 12.9482 14.5827 173.41 9.69726 97.3575 -38.5758 -6.29477 1.76641 68.1648 1.42887 8.02517 26.5543 2.73843 2.50024 -0.317844 8.42329 -91.1094 10.0116 -1.13805 -2.1086 -1.66041 -1.22974 -2.05651 -24.1831 -0.451915 -2.35302 -4.17049 -0.451905 -2.35303 99.5249 -50.506 -86.071 26.162 -2.57548 -8.59857 0.643866 -2.11267 -30.7704 -12.091 -0.336356 -2.06014 -83.7528 -51.9648 88.333 -27.8168 -24.5591 -16.7337 -0.215554 68.0194 0.135433 5.28042 -0.491558 -13.0052 8.63872 0.52553 -6.4228 -17.4902 -0.458732 17.2132 
11.0965 98.0976 -8.41076 104.434 48.215 82.5358 175.744 11.6208 88.2684 -20.5962 17.6766 2.78013 53.5432 0.494187 7.76305 53.622 12.5244 12.1495 174.903 0.949453 98.14 -32.4662 -7.9445 0.334633 66.0434 4.96519 13.6733 25.5786 4.021 2.18728 0.124303 8.14441 -91.1783 10.5759 -0.293984 -2.31604 -1.09706 -0.395644 -2.30088 -23.6157 0.415463 -2.29737 -3.60308 0.415461 -2.29738 98.477 -49.5998 -87.7593 27.4416 -9.92124 -12.5503 -4.55949 -2.97345 -41.6833 -10.4619 -0.362558 -1.12722 -83.6919 -52.2808 88.4558 -20.2947 -26.4004 -5.68735 -1.80568 71.3198 -0.0335163 3.9243 -0.482423 -14.4446 7.23062 1.63738 -6.68291 -17.9615 0.409852 18.1833 
19.2217 97.729 -16.3002 100.474 42.5991 88.238 178.66 16.4585 91.1111 -5.06461 10.1093 0.777674 58.9217 -2.5585 2.63442 51.2411 11.193 11.9275 175.377 -6.26931 98.3625 -28.5609 -10.355 -0.362322 65.4115 4.85913 19.898 26.4996 2.73941 3.30816 0.331327 7.75051 -91.3338 11.3656 0.0373762 -2.65998 -0.308024 -0.0796939 -2.65906 -22.8229 0.834814 -2.52596 -2.81028 0.834813 -2.52596 97.203 -49.8574 -89.7207 23.8397 -23.9909 -16.2237 -13.4635 -2.57783 -49.4796 -6.59831 -0.166327 -2.43239 -82.1732 -52.9278 90.7437 -15.3423 -26.7087 5.40046 -3.41621 72.3052 -0.00944167 1.63285 -0.396654 -14.9995 6.96772 3.04942 -8.47908 -18.9504 1.80333 19.4502 
27.5011 94.3571 -24.1716 100.159 40.4593 88.5109 177.524 19.8806 90.2033 -10.9214 11.9986 0.997243 54.9417 -2.86585 7.24851 43.2419 7.12366 10.0052 174.678 -11.0165 96.9194 -34.5527 -10.7533 -1.62791 69.0025 2.25809 22.4152 29.9043 -1.52909 2.62847 0.3869 7.70631 -91.1102 11.4611 0.251033 -2.23818 -0.211772 0.152317 -2.24706 -22.7336 0.912003 -2.0594 -2.721 0.911977 -2.0594 96.4382 -51.5224 -90.724 21.7271 -28.8768 -17.3147 -21.978 -4.26597 -52.4615 2.20875 0.0637384 -1.33962 -81.561 -53.2336 91.6606 -16.5042 -30.3732 3.93983 0.350513 76.2423 -0.00862822 -1.6301 0.00146623 -14.5032 10.0224 2.3132 -10.2447 -19.2985 1.5285 20.1592 
35.2223 91.7512 -31.7592 101.933 37.4783 83.7123 178.122 22.4831 85.6744 -28.9548 16.708 0.324564 53.5408 -5.02223 13.717 28.7185 0.0141922 -3.03086 172.576 -9.98432 88.054 -48.3869 -12.9158 -2.88492 60.3483 9.60602 24.6296 24.7351 5.03408 2.96275 0.552278 7.92255 -90.3278 11.042 0.947804 -0.731853 -0.628766 0.914678 -0.77287 -23.167 1.12393 -0.413148 -3.15437 1.12397 -0.413141 95.2342 -52.4883 -92.432 24.4925 -25.4576 -15.3608 -17.1016 -8.96957 -44.0141 -4.45439 -0.166479 -1.35966 -82.0629 -55.5191 91.0942 -21.084 -35.085 -7.54059 6.66546 85.2862 0.321556 -3.29297 0.282673 -13.2861 12.5076 2.16567 -10.2127 -18.2725 1.95019 18.9878 
